#tb 0: 100/2997
#media_type 0: video
#codec_id 0: rawvideo
#dimensions 0: 1416x1062
#sar 0: 4/3
0,          0,          0,        1,  2255688, 0x0243fa6f
0,          1,          1,        1,  2255688, 0x0243fa6f
0,          2,          2,        1,  2255688, 0x66b89c6e
0,          3,          3,        1,  2255688, 0x03ce588c
0,          4,          4,        1,  2255688, 0x313f5935
0,          5,          5,        1,  2255688, 0x90f99b4a
0,          6,          6,        1,  2255688, 0x7363a824
0,          7,          7,        1,  2255688, 0xdbbc5014
0,          8,          8,        1,  2255688, 0x007a4de0
0,          9,          9,        1,  2255688, 0x98a9a21e
0,         10,         10,        1,  2255688, 0xef13794a
0,         11,         11,        1,  2255688, 0x3f4ecbd8
0,         12,         12,        1,  2255688, 0xd1c65043
0,         13,         13,        1,  2255688, 0x1a75fd65
0,         14,         14,        1,  2255688, 0xc558563d
